# xmcd CD database file
#
# Track frame offsets:
#	150
#	11043
#	32389
#	47627
#	61329
#	67034
#	77084
#	87476
#	99979
#	111984
#	123626
#	137442
#	149184
#	160349
#	173130
#	186464
#	202435
#	214593
#	228181
#	240900
#	249747
#	260347
#	270300
#	288755
#	302563
#	312797
#	324093
#	339212
#
# Disc length: 4727 seconds
#
# Revision: 1
# Processed by: cddbd v1.5.1PL2 Copyright (c) Steve Scherf et al.
# Submitted via: CDex 1.51
#
DISCID=8d12751c
DTITLE=Major - Christmas
DYEAR=2005
DGENRE=Country
TTITLE0=Digital_Orchestra - First Noel
TTITLE1=101Strings - OhLittleTownOfBethlehem
TTITLE2=BingCrosby - 12_Days_Of_Christmas
TTITLE3=101Strings - OHolyNight
TTITLE4=BingCrosby - Deck_The_Halls
TTITLE5=BingCrosby - Frosty_The_Snowman
TTITLE6=CanadianBrass - DingDong
TTITLE7=CanadianBrass - WhatChildIsThis
TTITLE8=BingCrosby - Its_Beginning_To_Look_A_Lot_Like_Christmas
TTITLE9=CanadianBrass - AngelsWe
TTITLE10=BingCrosby - Silver_Bells
TTITLE11=CanadianBrass - JubilateDeo
TTITLE12=BingCrosby - The_First_Noel
TTITLE13=ConnieFrancis - AveMaria
TTITLE14=BingCrosby - White_Christmas
TTITLE15=BobSeger - The_Little_Drummer_Boy
TTITLE16=BingCrosby - ChristmasInKillarney
TTITLE17=Away - In_A_Manger
TTITLE18=BingCrosby - SleighBellSerenade
TTITLE19=DeanMartin - Let_It_Snow
TTITLE20=BingCrosby - WalkingInAWinterWonderland
TTITLE21=BobbyHelms - Jingle_Bell_Rock
TTITLE22=BryanAdams - Christmas_Time
TTITLE23=BurlIves - It_Came_Upon_A_Midnight_Clear
TTITLE24=GlenCampbell - I_Believe_In_Christmas
TTITLE25=KittyWells - OldKrisKringle
TTITLE26=NatCole - ACradleInBethlehem
TTITLE27=RitaMcNeil - WhenItComesToChristmas
EXTD=YEAR: 2005
EXTT0=
EXTT1=
EXTT2=
EXTT3=
EXTT4=
EXTT5=
EXTT6=
EXTT7=
EXTT8=
EXTT9=
EXTT10=
EXTT11=
EXTT12=
EXTT13=
EXTT14=
EXTT15=
EXTT16=
EXTT17=
EXTT18=
EXTT19=
EXTT20=
EXTT21=
EXTT22=
EXTT23=
EXTT24=
EXTT25=
EXTT26=
EXTT27=
PLAYORDER=
